<svg id="flat" height="512" viewBox="0 0 128 128" width="512" xmlns="http://www.w3.org/2000/svg"><path d="m127 64.006a63.006 63.006 0 1 1 -72.633-62.281 64.248 64.248 0 0 1 9.633-.725c.7 0 1.389.012 2.078.036a63.006 63.006 0 0 1 60.922 62.97z" fill="#dbe2eb"/><path d="m123.909 83.5a63 63 0 0 1 -122.909-19.495 62.776 62.776 0 0 1 15.42-41.28c-.41 1.22-.77 2.46-1.09 3.71a63 63 0 0 0 108.579 57.065z" fill="#dbe2eb"/><path d="m123.909 83.5c-.22.69-.45 1.37-.7 2.04v.01c-.24.66-.49 1.32-.76 1.97a.358.358 0 0 1 -.04.11c-.23.56-.46 1.12-.7 1.67-.11.26-.23.51-.35.76q-.315.7-.66 1.41c-.29.6-.59 1.19-.9 1.78-.12.23-.24.46-.37.68-.22.44-.47.87-.71 1.3-.33.58-.67 1.16-1.03 1.73-.39.63-.79 1.27-1.21 1.89v.01a63.011 63.011 0 0 1 -113.479-50.645c.14-.55.29-1.09.45-1.63.35-1.23.74-2.45 1.17-3.65.1-.29.2-.58.31-.86s.22-.58.33-.86c.19-.5.39-1 .6-1.48.26-.64.53-1.26.82-1.88.25-.55.51-1.1.78-1.64.22-.46.45-.9.67-1.34.63-1.21 1.3-2.4 2.01-3.56.27-.45.55-.89.83-1.33.34-.53.69-1.05 1.05-1.57.34-.49.69-.98 1.04-1.47s.71-.97 1.08-1.44.74-.94 1.12-1.41.77-.92 1.16-1.37c-.41 1.22-.77 2.46-1.09 3.71a62.32 62.32 0 0 0 -1.95 13.34c-.03.81-.05 1.63-.05 2.45a62.99 62.99 0 0 0 34.95 56.41 62.087 62.087 0 0 0 9.25 3.73 63.1 63.1 0 0 0 18.8 2.85 62.88 62.88 0 0 0 47.58-21.72z" fill="#bac2d3" opacity=".5"/><path d="m127 64.005a62.656 62.656 0 0 1 -10.518 34.845c-3.348 1.282-6.921.392-7.931-4.749-.617-3.146-.106-6.66.083-9.842.226-3.859.274-10.471 2.161-13.665a4.567 4.567 0 0 1 1.045-1.094 6.443 6.443 0 0 0 2.066-2.66 3.322 3.322 0 0 0 -.535-3.407c-.4-.344-.9-.463-1.294-.843-1-.985-.558-3.122.392-4.179s2.232-1.531 3.253-2.493 1.733-2.873.95-4.143a3.093 3.093 0 0 0 -1.543-1.14c-1.935-.855-3.871-1.71-5.794-2.552-1.128-.5-2.731-.725-3.158.676a11.061 11.061 0 0 0 -.154 1.413 2.224 2.224 0 0 1 -4.049.8c-1.163-1.543-1.282-3.882-1.341-6.007a2.2 2.2 0 0 1 -3.918-.76c-.962-2.908 1.983-6.482.593-9.118-.225-.439-.581-.866-.5-1.389.142-1.009 1.46-.6 2.078-1.282s.177-1.947.213-2.98a2.355 2.355 0 0 1 1.627-2.315 2 2 0 0 1 2.1 1.6c.131.475.142.985.238 1.472.344 1.852 2.089 3.123 3.514 2.47s2.113-3.147 1.246-4.726a2.7 2.7 0 0 1 -.593-1.5c.13-1.579 2.457-.238 3.276-1.425a21.453 21.453 0 0 0 -10.827-5.58 1.152 1.152 0 0 0 -.867.095c-.95.665.155 2.8-.57 3.835a3.563 3.563 0 0 1 -3.68-.262c-1.068-.878-1.472-3.051-.522-4.119.427-.475 1.021-.653 1.46-1.116.973-1.021.772-3.111-.083-4.286a6.721 6.721 0 0 0 -3.336-2.161c-1.223-.475-2.446-.938-3.669-1.4-2.2-.843-4.547-1.7-6.767-.9a1.32 1.32 0 0 0 -.748.546 3.4 3.4 0 0 0 -.261 1.223 2.43 2.43 0 0 1 -2.137 2.175 2.467 2.467 0 0 1 -2.089-2.244c-.226-1.627.629-3.681-.368-4.737a2.084 2.084 0 0 0 -1.354-.523c-1.282-.166-2.849-.142-3.479 1.271-.189.415-.3.961-.653 1.151-.3.155-.629-.023-.925-.2a7.986 7.986 0 0 1 -3.277-3.384 5.264 5.264 0 0 1 -.285-3.36 63.006 63.006 0 0 1 60.93 62.969z" fill="#6bb3d9"/><path d="m81.02 70.487c-.048 1 1.211 1.413 2.066 1.912 2.422 1.436 2.821 6.88.023 7.23-11.829 1.478-5.545 9.713-13.451 11.753-1.452.375-4.82 2.3-4.867 3.289a6.3 6.3 0 0 1 -4.429 5.639c-7.491 2.161 1.674 9.616-2.73 12.525-3.882 2.565-9.64-7.634-10.3-10.257a4.019 4.019 0 0 1 .166-3.087c.51-.819 1.484-1.259 2.018-2.066 1.164-1.769-.356-4.048-1.887-5.509s-2.959-3.242-2.719-5.354c.768-6.77-6.258-4.992-5.45-14.128.272-3.061-3.739-4.3-6.007-6.375a6.8 6.8 0 0 1 -.344-9.308c1.484-1.579 3.989-3.348 2.909-5.235-.618-1.093-2.1-1.247-3.36-1.33-3.36-.226-7.563-1.817-7.492-5.188.036-1.081.535-2.078.677-3.146s-.309-2.375-1.365-2.588c-2.042-.428-3.229 3.5-5.188 2.778-1.674-.63-.724-3.6-2.149-4.678a2.258 2.258 0 0 0 -2.944.748 11.683 11.683 0 0 0 -1.294 3.1c-1.484 4.025-5.616 6.637-9.9 7.005a63.108 63.108 0 0 1 51.364-46.493c.024.012.036.035.059.059a2.492 2.492 0 0 1 .368 1.5c.06 2 .119 3.977.178 5.972a13.263 13.263 0 0 1 -.486 4.986 4.534 4.534 0 0 1 -3.6 3.134c-1.9.155-4.239-1.187-5.5.25-.962 1.092-.273 2.825-.677 4.226-.57 1.983-3.1 2.636-5.153 2.458s-4.214-.784-6.126-.012c-3.015 1.223-3.514 6.1-.807 7.9 1.377.914 3.431 1.282 3.858 2.885a4.644 4.644 0 0 0 -.381 8.518c1.092-1.662 3.656-1.2 5.449-.309s3.858 2.042 5.627 1.14c1.413-.724 2.1-2.541 3.61-2.968 1.78-.511 3.383 1.175 4.321 2.766s1.995 3.479 3.823 3.728c1.519.19 3.277-.831 4.476.119 1.733 1.365.012 5.045 2.03 5.924a10.794 10.794 0 0 1 8.7-2.1 3.8 3.8 0 0 1 1.8.772c1.341 1.211.843 3.55 2.006 4.939 1.425 1.71 4.155.9 6.328 1.353a5.143 5.143 0 0 1 -.46 10.136c-1.128.129-2.719.247-2.79 1.387z" fill="#6bb3d9"/><g fill="#4fa4d1"><path d="m123.909 83.5c-.22.69-.45 1.37-.7 2.04v.01c-.24.66-.49 1.32-.76 1.97a.358.358 0 0 1 -.04.11c-.23.56-.46 1.12-.7 1.67-.11.26-.23.51-.35.76q-.315.7-.66 1.41c-.29.6-.59 1.19-.9 1.78-.12.23-.24.46-.37.68-.22.44-.47.87-.71 1.3-.33.58-.67 1.16-1.03 1.73-.39.63-.79 1.27-1.21 1.89-2.88 1.11-5.93.61-7.36-2.83a62.992 62.992 0 0 0 14.79-12.52z"/><path d="m15.259 24.1c.38-.46.77-.92 1.16-1.37-.41 1.22-.77 2.46-1.09 3.71a62.32 62.32 0 0 0 -1.95 13.34c-.16.48-.31.97-.48 1.44-1.49 4.02-5.62 6.63-9.9 7 .14-.55.29-1.09.45-1.63.35-1.23.74-2.45 1.17-3.65.1-.29.2-.58.31-.86s.22-.58.33-.86c.19-.5.39-1 .6-1.48.26-.64.53-1.26.82-1.88.25-.55.51-1.1.78-1.64.22-.46.45-.9.67-1.34.63-1.21 1.3-2.4 2.01-3.56.27-.45.55-.89.83-1.33.34-.53.69-1.05 1.05-1.57.34-.49.69-.98 1.04-1.47s.71-.97 1.08-1.44.74-.945 1.12-1.41z"/><path d="m57.629 112.835c-3.88 2.56-9.64-7.63-10.3-10.26a3.179 3.179 0 0 1 .95-3.94 62.087 62.087 0 0 0 9.25 3.73c-1.32 3.135 3.55 8.19.1 10.47z"/></g><path d="m120.916 9.309h-36.044a4.92 4.92 0 0 0 -4.92 4.92v19.432a4.92 4.92 0 0 0 4.92 4.92h2.839v8.609l7.9-8.609h25.3a4.92 4.92 0 0 0 4.92-4.92v-19.432a4.92 4.92 0 0 0 -4.915-4.92z" fill="#ef5361"/><path d="m91.662 20.8a2.85 2.85 0 1 0 2.849 2.85 2.85 2.85 0 0 0 -2.849-2.85z" fill="#fff"/><path d="m102.894 20.8a2.85 2.85 0 1 0 2.849 2.85 2.85 2.85 0 0 0 -2.849-2.85z" fill="#fff"/><path d="m114.127 20.8a2.85 2.85 0 1 0 2.849 2.85 2.849 2.849 0 0 0 -2.849-2.85z" fill="#fff"/><path d="m20.519 63.364h36.044a4.92 4.92 0 0 1 4.92 4.92v19.432a4.921 4.921 0 0 1 -4.92 4.921h-2.838v8.609l-7.9-8.609h-25.3a4.921 4.921 0 0 1 -4.92-4.921v-19.432a4.92 4.92 0 0 1 4.914-4.92z" fill="#ffc943"/><path d="m26.145 74.936a2.85 2.85 0 1 0 2.849 2.849 2.85 2.85 0 0 0 -2.849-2.849z" fill="#fff"/><path d="m37.378 74.936a2.85 2.85 0 1 0 2.849 2.849 2.849 2.849 0 0 0 -2.849-2.849z" fill="#fff"/><path d="m48.611 74.936a2.85 2.85 0 1 0 2.849 2.849 2.85 2.85 0 0 0 -2.849-2.849z" fill="#fff"/></svg>