<svg id="flat" height="512" viewBox="0 0 128 128" width="512" xmlns="http://www.w3.org/2000/svg"><path d="m93.096 61.23h15.972v21.717h-15.972z" fill="#384868"/><path d="m119.778 91.005-13.267-8.058v-21.717l13.267-8.059z" fill="#43567c"/><path d="m126 53.171h-6.222v37.834h6.222a2 2 0 0 0 2-2v-33.834a2 2 0 0 0 -2-2z" fill="#384868"/><path d="m93.1 76.5h15.97v6.45h-15.97z" fill="#2f3a5a"/><path d="m119.78 84.56v6.44l-13.27-8.05v-6.45h2.56v1.55z" fill="#384868"/><path d="m119.78 84.56v6.44h6.22a2 2 0 0 0 2-2v-4.44z" fill="#2f3a5a"/><path d="m109.07 76.5v1.55l-2.56-1.55z" fill="#43567c"/><path d="m73.74 51.658a3 3 0 0 1 -2.481-1.31l-9.735-14.276h-32.749a3 3 0 0 1 0-6h34.334a3 3 0 0 1 2.479 1.31l10.628 15.586a3 3 0 0 1 -2.476 4.69z" fill="#384868"/><path d="m12.903 56.738h9.722v20.527h-9.722z" fill="#384868"/><path d="m12.9 70.99h9.73v6.28h-9.73z" fill="#2f3a5a"/><path d="m6 51.024v31.956l8.123-5.714v-20.527z" fill="#43567c"/><path d="m14.12 70.99v6.28l-8.12 5.71v-6.28z" fill="#384868"/><rect fill="#43567c" height="51.68" rx="5.49" width="80.316" x="18.509" y="46.248"/><path d="m25.873 53.062h53.386v38.052h-53.386z" fill="#384868"/><g opacity=".5"><path d="m79.26 53.06v38.05h-53.39v-2.25h50.87v-35.8z" fill="#2f3a5a"/></g><path d="m51.913 28.958h-23.443a4.22 4.22 0 0 0 -4.2 4.634 4.342 4.342 0 0 0 4.382 3.808h23.261a.652.652 0 0 0 .652-.653v-7.136a.653.653 0 0 0 -.652-.653z" fill="#2f3a5a"/><path d="m52.57 35.22v1.52a.666.666 0 0 1 -.66.66h-23.26a4.343 4.343 0 0 1 -4.38-3.81 4.114 4.114 0 0 1 .29-1.99 4.336 4.336 0 0 0 4.37 3.75h23.26a.623.623 0 0 0 .38-.13z" fill="#273149"/><path d="m2 51.024a2 2 0 0 0 -2 2v27.956a2 2 0 0 0 2 2h4v-31.956z" fill="#384868"/><path d="m6 76.7v6.28h-4a2.006 2.006 0 0 1 -2-2v-6.28a2 2 0 0 0 2 2z" fill="#2f3a5a"/><circle cx="88.938" cy="56.768" fill="#384868" r="2.711"/></svg>