<svg id="flat" height="512" viewBox="0 0 128 128" width="512" xmlns="http://www.w3.org/2000/svg"><path d="m62.859 41.14h-2.046v-8.7a5.148 5.148 0 0 1 5.143-5.14h33.952a5.614 5.614 0 1 0 0-11.228h-65.608a4.614 4.614 0 0 1 -4.608-4.609v-5.563h2.046v5.569a2.565 2.565 0 0 0 2.562 2.559h65.608a7.66 7.66 0 1 1 0 15.319h-33.952a3.1 3.1 0 0 0 -3.1 3.1z" fill="#2f3a5a"/><path d="m127.9 105.016-5.7-45.509c-.3-2.649-3.359-7.51-5.9-6.693l-19.057 4.791v-19.963h-67.743v19.573l-18.213-5.868c-2.537-.817-5.692 8.144-6 10.793l-5.187 42.472a15.608 15.608 0 0 0 11.772 17.108 15.353 15.353 0 0 0 16.642-7.16l10.634-18.016a15.466 15.466 0 0 1 13.318-7.6h23.025a15.466 15.466 0 0 1 13.318 7.6l10.413 17.643a15.775 15.775 0 0 0 13.4 7.916 15.343 15.343 0 0 0 15.278-17.087z" fill="#384868"/><circle cx="32.602" cy="64.023" fill="#43567c" r="27.374" transform="matrix(.924 -.383 .383 .924 -22.019 17.35)"/><circle cx="95.2" cy="64.023" fill="#43567c" r="27.374" transform="matrix(.924 -.383 .383 .924 -17.254 41.305)"/><circle cx="95.2" cy="64.023" fill="#384868" r="22.883" transform="matrix(.924 -.383 .383 .924 -17.254 41.305)"/><circle cx="32.602" cy="64.023" fill="#384868" r="22.883" transform="matrix(.924 -.383 .383 .924 -22.019 17.35)"/><g fill="#9297ab"><path d="m95.2 48.539a4.139 4.139 0 1 0 4.139 4.139 4.139 4.139 0 0 0 -4.139-4.139z"/><path d="m95.2 71.229a4.139 4.139 0 1 0 4.139 4.139 4.139 4.139 0 0 0 -4.139-4.139z"/><path d="m110.684 64.023a4.14 4.14 0 1 0 -4.139 4.139 4.139 4.139 0 0 0 4.139-4.139z"/><path d="m87.994 64.023a4.139 4.139 0 1 0 -4.139 4.139 4.139 4.139 0 0 0 4.139-4.139z"/><path d="m32.6 77.334a3.533 3.533 0 0 1 -3.529-3.528v-6.255h-6.252a3.529 3.529 0 1 1 0-7.057h6.254v-6.254a3.529 3.529 0 0 1 7.057 0v6.254h6.254a3.529 3.529 0 1 1 0 7.057h-6.254v6.255a3.532 3.532 0 0 1 -3.53 3.528z"/></g></svg>